/* XPM */
static char *xpm_[] = {
/* columns rows colors chars-per-pixel */
"16 16 13 1 ",
"  c #702919",
". c #7B2B1A",
"X c #444551",
"o c #AA3B24",
"O c #C64024",
"+ c #DB5539",
"@ c #F38068",
"# c #737486",
"$ c #7C879C",
"% c #95ACDC",
"& c #B7B9E3",
"* c #CFD0EC",
"= c #E1E2F4",
/* pixels */
"%%%%%%%%%%%%%%%%",
"%%%%%%%%%%%%%%%%",
"%%%%%%%%%%%%%%%%",
"%%%%%%oooo%%%%%%",
"%%%%%o@@++o%%%%%",
"%%%%o@@++++.%%%%",
"%%%o++++++OO.%%%",
"%%%oO++XXOOO.%%%",
"%%%# OX=*XO X$%%",
"%%%#* X*&X &X$%%",
"%%%$#**XX&&X$$%%",
"%%%%$X**&&X$$%%%",
"%%%%%$XXXX$$%%%%",
"%%%%%%$$$$$%%%%%",
"%%%%%%%%%%%%%%%%",
"%%%%%%%%%%%%%%%%"
};
