/* XPM */
static char *xpm_[] = {
/* columns rows colors chars-per-pixel */
"16 16 6 1 ",
"  c #64D070",
". c #6AD476",
"X c #71DA7D",
"o c #6BE179",
"O c #84E68F",
"+ c #87F8A0",
/* pixels */
". XXOOO+OOOOOOOO",
" XXOOOOOOOOOOOOO",
"XXOOOOOOOOOOOoOO",
"OOOOOo+OOOOOOOOO",
"OOOOO+OOOoOOooOO",
"OO+OOOOOOOOO+oOO",
"O+OOOOOOOOOOOOOO",
"OOOOOOOooOOOOOOO",
"OooOOOOo+OOOOoOO",
"O+oOOOOOOOOOOOOO",
"OOOOoOOOOOOOOOO+",
"OOOOOOOOOOo+OOOO",
"OOOOOOOOOOooOOOO",
"OoOO+oOOoOOO+OoO",
"OOOOooOOOOO+OOOO",
"OOOOOOOO+OOOOOOO"
};
