/* XPM */
static char *xpm_[] = {
/* columns rows colors chars-per-pixel */
"16 16 7 1 ",
"  c #64D070",
". c #6AD476",
"X c #6EDA7A",
"o c #71DA7D",
"O c #6BE179",
"+ c #84E68F",
"@ c #87F8A0",
/* pixels */
"XXXXX...XXXXX...",
".....   .....   ",
"     ooo     ooo",
"ooooo+++ooooo+++",
"++++++++++++++++",
"++@+++++++++@O++",
"+@++++++++++++++",
"+++++++OO+++++++",
"+OO++++O@++++O++",
"+@O+++++++++++++",
"++++O++++++++++@",
"++++++++++O@++++",
"++++++++++OO++++",
"+O++@O++O+++@+O+",
"++++OO+++++@++++",
"++++++++@+++++++"
};
