/* XPM */
static char *xpm_[] = {
/* columns rows colors chars-per-pixel */
"16 16 14 1 ",
"  c #173A0C",
". c #453C29",
"X c #2F4B26",
"o c #334820",
"O c #39582F",
"+ c #207826",
"@ c #7B683E",
"# c #2F6945",
"$ c #907E53",
"% c #308531",
"& c #28844B",
"* c #3DB14B",
"= c #559B47",
"- c #C0D4FD",
/* pixels */
" +##oo&&&&oo##+ ",
" ##+=+oooo+=+## ",
" #+=+#+==+#+=+# ",
" X=+##+==+##+=X ",
" X+O##++++##O+X ",
" OO##O++++O##OO ",
"- XOOOO++OOOOX -",
"-*%XOOOOOOOOX%*-",
"-*%. XXXXXX .%*-",
"-*%.@      @.%*-",
"-*%%.@$$$$@.%%*-",
"-**%%.@$$@.%%**-",
"--**%%....%%**--",
"---***%%%%***---",
"-----******-----",
"----------------"
};
