/* XPM */
static char *xpm_[] = {
/* columns rows colors chars-per-pixel */
"16 16 9 1 ",
"  c #334820",
". c #2B6121",
"X c #207826",
"o c #237642",
"O c #28844B",
"+ c #59AA5F",
"@ c #4B9F6B",
"# c #59C961",
"$ c #95ACDC",
/* pixels */
"$$$$$$$$$$$$$$$$",
"$$$$$$$..$$$$$$$",
"$$$$$$.##.$$$$$$",
"$$$$oo@##@oo$$$$",
"$$$o@@@##@@@o$$$",
"$$o@##@@@@##@o$$",
"$$o@+#@##@#+@o$$",
"$.+o@+@##@+@o+.$",
"$.+#oo@@@@oo#+.$",
"$.##@@oooo@@##.$",
".##+@@++++@@+##.",
".+@@@+####+@@@+.",
".OO@@+####+@@OO.",
".OOO@@+##+@@OOO.",
"$  OO@+##+@OO  $",
"$ X OOO++OOO X $"
};
