/* XPM */
static char *xpm_[] = {
/* columns rows colors chars-per-pixel */
"16 16 12 1 ",
"  c #141B1B",
". c #3D2936",
"X c #2C354D",
"o c #404973",
"O c #FA6A0A",
"+ c #BD6A62",
"@ c #F9A31B",
"# c #FFAE70",
"$ c #FFCBA4",
"% c #A3A7C2",
"& c #F5FFE8",
"* c None",
/* pixels */
"****************",
"****************",
"****        ****",
"*** #$$$$$$# ***",
"** ###$$$$### **",
"** ########## **",
"** ########## **",
"** #...##...# **",
"* ##%XX##XX%## *",
"* ##&oo##oo&## *",
"** ####++#### **",
"*** +######+ ***",
"** O@++++++@O **",
"* ##@@@@@@@@## *",
"* ##@@@  @@@## *",
"**  OO    OO  **"
};
