/* XPM */
static char *xpm_[] = {
/* columns rows colors chars-per-pixel */
"16 16 3 1 ",
"  c #A93B3B",
". c #E6482E",
"X c #F4B41B",
/* pixels */
"X .. ...........",
"   .............",
". .... .........",
"..... . ........",
"...... ..... ...",
"................",
"................",
".. .............",
"................",
"........... ....",
".......... . ...",
".. ........ ....",
". . ............",
".. ........... .",
"........ ....   ",
".............. X"
};
