/* XPM */
static char *xpm_[] = {
/* columns rows colors chars-per-pixel */
"16 16 5 1 ",
"  c #39314B",
". c #394778",
"X c #3978A8",
"o c #73A5BC",
"O c None",
/* pixels */
"OOOOOOOOOOOOOOOO",
"OOOOOOOOOOOOOOOO",
"OOOOOXXXXXXXOOOO",
"OOOOOXO.O.OXOOOO",
"OOOOOo.O.O.XOOOO",
"OOOOOo . . oOOOO",
"OOOOOoooooooOOOO",
"OOOOO. . . .OOOO",
"OOOOO.. . ..OOOO",
"OOOOO.......OOOO",
"OOOOOOOOOOOOOOOO",
"OOOOOOOOOOOOOOOO",
"OOOOOOOOOOOOOOOO",
"OOOOOOOOOOOOOOOO",
"OOOOOOOOOOOOOOOO",
"OOOOOOOOOOOOOOOO"
};
