/* XPM */
static char *xpm_[] = {
/* columns rows colors chars-per-pixel */
"16 16 6 1 ",
"  c #7D7071",
". c #EEA160",
"X c #A0938E",
"o c #CFC6B8",
"O c #DFF6F5",
"+ c None",
/* pixels */
"++++++++++++++++",
"++++++++++++++++",
"++++++++++++++++",
"++++++++Oo++++++",
"+++++++O..O+++++",
"++++++oXoOo+++++",
"+++++o+XXoX+++++",
"+++++o+XXX +++++",
"++++++X X  +++++",
"++++++++  ++++++",
"++++++++++++++++",
"++++++++++++++++",
"++++++++++++++++",
"++++++++++++++++",
"++++++++++++++++",
"++++++++++++++++"
};
