/* XPM */
static char *xpm_[] = {
/* columns rows colors chars-per-pixel */
"16 16 7 1 ",
"  c #141B1B",
". c #FA6A0A",
"X c #BD6A62",
"o c #F9A31B",
"O c #FFAE70",
"+ c #FFCBA4",
"@ c None",
/* pixels */
"@@@@@@@@@@@@@@@@",
"@@@@@@@@@@@@@@@@",
"@@@@        @@@@",
"@@@ O++++++O @@@",
"@@ OOO++++OOO @@",
"@@ OOOOOOOOOO @@",
"@@ OOOOOOOOOO @@",
"@@ OOOOOOOOOO @@",
"@ OOOOOOOOOOOO @",
"@ OOOOOOOOOOOO @",
"@@ XOOOOOOOOX @@",
"@@@ XXXXXXXX @@@",
"@@ .oooooooo. @@",
"@ OOooooooooOO @",
"@ OOooo  oooOO @",
"@@  ..    ..  @@"
};
