/* XPM */
static char *xpm_[] = {
/* columns rows colors chars-per-pixel */
"48 48 5 1 ",
"  c #39314B",
". c #394778",
"X c #3978A8",
"o c #73A5BC",
"O c None",
/* pixels */
"OOOOOOOOOOOOOOOOOOOOOOOOOOOOOOOOOOOOOOOOOOOOOOOO",
"OOOOOOOOOOOOOOOOOOOOOOOOOOOOOOOOOOOOOOOOOOOOOOOO",
"OOOOOOOOOOOOOOOOOOOOOOOOOOOOOOOOOOOOOOOOOOOOOOOO",
"OOOOOOOOOOOOOOOOOOOOOOOOOOOOOOOOOOOOOOOOOOOOOOOO",
"OOOOOOOOOOOOOOOOOOOOOOOOOOOOOOOOOOOOOOOOOOOOOOOO",
"OOOOOOOOOOOOOOOOOOOOOOOOOOOOOOOOOOOOOOOOOOOOOOOO",
"OOOOOOOOOOOOOOOXXXXXXXXXXXXXXXXXXXXXOOOOOOOOOOOO",
"OOOOOOOOOOOOOOOXXXXXXXXXXXXXXXXXXXXXOOOOOOOOOOOO",
"OOOOOOOOOOOOOOOXXXXXXXXXXXXXXXXXXXXXOOOOOOOOOOOO",
"OOOOOOOOOOOOOOOXXXOOO...OOO...OOOXXXOOOOOOOOOOOO",
"OOOOOOOOOOOOOOOXXXOOO...OOO...OOOXXXOOOOOOOOOOOO",
"OOOOOOOOOOOOOOOXXXOOO...OOO...OOOXXXOOOOOOOOOOOO",
"OOOOOOOOOOOOOOOooo...OOO...OOO...XXXOOOOOOOOOOOO",
"OOOOOOOOOOOOOOOooo...OOO...OOO...XXXOOOOOOOOOOOO",
"OOOOOOOOOOOOOOOooo...OOO...OOO...XXXOOOOOOOOOOOO",
"OOOOOOOOOOOOOOOooo   ...   ...   oooOOOOOOOOOOOO",
"OOOOOOOOOOOOOOOooo   ...   ...   oooOOOOOOOOOOOO",
"OOOOOOOOOOOOOOOooo   ...   ...   oooOOOOOOOOOOOO",
"OOOOOOOOOOOOOOOoooooooooooooooooooooOOOOOOOOOOOO",
"OOOOOOOOOOOOOOOoooooooooooooooooooooOOOOOOOOOOOO",
"OOOOOOOOOOOOOOOoooooooooooooooooooooOOOOOOOOOOOO",
"OOOOOOOOOOOOOOO...   ...   ...   ...OOOOOOOOOOOO",
"OOOOOOOOOOOOOOO...   ...   ...   ...OOOOOOOOOOOO",
"OOOOOOOOOOOOOOO...   ...   ...   ...OOOOOOOOOOOO",
"OOOOOOOOOOOOOOO......   ...   ......OOOOOOOOOOOO",
"OOOOOOOOOOOOOOO......   ...   ......OOOOOOOOOOOO",
"OOOOOOOOOOOOOOO......   ...   ......OOOOOOOOOOOO",
"OOOOOOOOOOOOOOO.....................OOOOOOOOOOOO",
"OOOOOOOOOOOOOOO.....................OOOOOOOOOOOO",
"OOOOOOOOOOOOOOO.....................OOOOOOOOOOOO",
"OOOOOOOOOOOOOOOOOOOOOOOOOOOOOOOOOOOOOOOOOOOOOOOO",
"OOOOOOOOOOOOOOOOOOOOOOOOOOOOOOOOOOOOOOOOOOOOOOOO",
"OOOOOOOOOOOOOOOOOOOOOOOOOOOOOOOOOOOOOOOOOOOOOOOO",
"OOOOOOOOOOOOOOOOOOOOOOOOOOOOOOOOOOOOOOOOOOOOOOOO",
"OOOOOOOOOOOOOOOOOOOOOOOOOOOOOOOOOOOOOOOOOOOOOOOO",
"OOOOOOOOOOOOOOOOOOOOOOOOOOOOOOOOOOOOOOOOOOOOOOOO",
"OOOOOOOOOOOOOOOOOOOOOOOOOOOOOOOOOOOOOOOOOOOOOOOO",
"OOOOOOOOOOOOOOOOOOOOOOOOOOOOOOOOOOOOOOOOOOOOOOOO",
"OOOOOOOOOOOOOOOOOOOOOOOOOOOOOOOOOOOOOOOOOOOOOOOO",
"OOOOOOOOOOOOOOOOOOOOOOOOOOOOOOOOOOOOOOOOOOOOOOOO",
"OOOOOOOOOOOOOOOOOOOOOOOOOOOOOOOOOOOOOOOOOOOOOOOO",
"OOOOOOOOOOOOOOOOOOOOOOOOOOOOOOOOOOOOOOOOOOOOOOOO",
"OOOOOOOOOOOOOOOOOOOOOOOOOOOOOOOOOOOOOOOOOOOOOOOO",
"OOOOOOOOOOOOOOOOOOOOOOOOOOOOOOOOOOOOOOOOOOOOOOOO",
"OOOOOOOOOOOOOOOOOOOOOOOOOOOOOOOOOOOOOOOOOOOOOOOO",
"OOOOOOOOOOOOOOOOOOOOOOOOOOOOOOOOOOOOOOOOOOOOOOOO",
"OOOOOOOOOOOOOOOOOOOOOOOOOOOOOOOOOOOOOOOOOOOOOOOO",
"OOOOOOOOOOOOOOOOOOOOOOOOOOOOOOOOOOOOOOOOOOOOOOOO"
};
