/* XPM */
static char *xpm_[] = {
/* columns rows colors chars-per-pixel */
"48 48 12 1 ",
"  c #141B1B",
". c #3D2936",
"X c #2C354D",
"o c #404973",
"O c #FA6A0A",
"+ c #BD6A62",
"@ c #F9A31B",
"# c #FFAE70",
"$ c #FFCBA4",
"% c #A3A7C2",
"& c #F5FFE8",
"* c None",
/* pixels */
"************************************************",
"************************************************",
"************************************************",
"************************************************",
"************************************************",
"************************************************",
"************                        ************",
"************                        ************",
"************                        ************",
"*********   ###$$$$$$$$$$$$$$$$$$###   *********",
"*********   ###$$$$$$$$$$$$$$$$$$###   *********",
"*********   ###$$$$$$$$$$$$$$$$$$###   *********",
"******   #########$$$$$$$$$$$$#########   ******",
"******   #########$$$$$$$$$$$$#########   ******",
"******   #########$$$$$$$$$$$$#########   ******",
"******   ##############################   ******",
"******   ##############################   ******",
"******   ##############################   ******",
"******   ##############################   ******",
"******   ##############################   ******",
"******   ##############################   ******",
"******   ###.........######.........###   ******",
"******   ###.........######.........###   ******",
"******   ###.........######.........###   ******",
"***   ######%%%XXXXXX######XXXXXX%%%######   ***",
"***   ######%%%XXXXXX######XXXXXX%%%######   ***",
"***   ######%%%XXXXXX######XXXXXX%%%######   ***",
"***   ######&&&oooooo######oooooo&&&######   ***",
"***   ######&&&oooooo######oooooo&&&######   ***",
"***   ######&&&oooooo######oooooo&&&######   ***",
"******   ############++++++############   ******",
"******   ############++++++############   ******",
"******   ############++++++############   ******",
"*********   +++##################+++   *********",
"*********   +++##################+++   *********",
"*********   +++##################+++   *********",
"******   OOO@@@++++++++++++++++++@@@OOO   ******",
"******   OOO@@@++++++++++++++++++@@@OOO   ******",
"******   OOO@@@++++++++++++++++++@@@OOO   ******",
"***   ######@@@@@@@@@@@@@@@@@@@@@@@@######   ***",
"***   ######@@@@@@@@@@@@@@@@@@@@@@@@######   ***",
"***   ######@@@@@@@@@@@@@@@@@@@@@@@@######   ***",
"***   ######@@@@@@@@@      @@@@@@@@@######   ***",
"***   ######@@@@@@@@@      @@@@@@@@@######   ***",
"***   ######@@@@@@@@@      @@@@@@@@@######   ***",
"******      OOOOOO            OOOOOO      ******",
"******      OOOOOO            OOOOOO      ******",
"******      OOOOOO            OOOOOO      ******"
};
