/* XPM */
static char *xpm_[] = {
/* columns rows colors chars-per-pixel */
"48 48 6 1 ",
"  c #7D7071",
". c #EEA160",
"X c #A0938E",
"o c #CFC6B8",
"O c #DFF6F5",
"+ c None",
/* pixels */
"++++++++++++++++++++++++++++++++++++++++++++++++",
"++++++++++++++++++++++++++++++++++++++++++++++++",
"++++++++++++++++++++++++++++++++++++++++++++++++",
"++++++++++++++++++++++++++++++++++++++++++++++++",
"++++++++++++++++++++++++++++++++++++++++++++++++",
"++++++++++++++++++++++++++++++++++++++++++++++++",
"++++++++++++++++++++++++++++++++++++++++++++++++",
"++++++++++++++++++++++++++++++++++++++++++++++++",
"++++++++++++++++++++++++++++++++++++++++++++++++",
"++++++++++++++++++++++++OOOooo++++++++++++++++++",
"++++++++++++++++++++++++OOOooo++++++++++++++++++",
"++++++++++++++++++++++++OOOooo++++++++++++++++++",
"+++++++++++++++++++++OOO......OOO+++++++++++++++",
"+++++++++++++++++++++OOO......OOO+++++++++++++++",
"+++++++++++++++++++++OOO......OOO+++++++++++++++",
"++++++++++++++++++oooXXXoooOOOooo+++++++++++++++",
"++++++++++++++++++oooXXXoooOOOooo+++++++++++++++",
"++++++++++++++++++oooXXXoooOOOooo+++++++++++++++",
"+++++++++++++++ooo+++XXXXXXoooXXX+++++++++++++++",
"+++++++++++++++ooo+++XXXXXXoooXXX+++++++++++++++",
"+++++++++++++++ooo+++XXXXXXoooXXX+++++++++++++++",
"+++++++++++++++ooo+++XXXXXXXXX   +++++++++++++++",
"+++++++++++++++ooo+++XXXXXXXXX   +++++++++++++++",
"+++++++++++++++ooo+++XXXXXXXXX   +++++++++++++++",
"++++++++++++++++++XXX   XXX      +++++++++++++++",
"++++++++++++++++++XXX   XXX      +++++++++++++++",
"++++++++++++++++++XXX   XXX      +++++++++++++++",
"++++++++++++++++++++++++      ++++++++++++++++++",
"++++++++++++++++++++++++      ++++++++++++++++++",
"++++++++++++++++++++++++      ++++++++++++++++++",
"++++++++++++++++++++++++++++++++++++++++++++++++",
"++++++++++++++++++++++++++++++++++++++++++++++++",
"++++++++++++++++++++++++++++++++++++++++++++++++",
"++++++++++++++++++++++++++++++++++++++++++++++++",
"++++++++++++++++++++++++++++++++++++++++++++++++",
"++++++++++++++++++++++++++++++++++++++++++++++++",
"++++++++++++++++++++++++++++++++++++++++++++++++",
"++++++++++++++++++++++++++++++++++++++++++++++++",
"++++++++++++++++++++++++++++++++++++++++++++++++",
"++++++++++++++++++++++++++++++++++++++++++++++++",
"++++++++++++++++++++++++++++++++++++++++++++++++",
"++++++++++++++++++++++++++++++++++++++++++++++++",
"++++++++++++++++++++++++++++++++++++++++++++++++",
"++++++++++++++++++++++++++++++++++++++++++++++++",
"++++++++++++++++++++++++++++++++++++++++++++++++",
"++++++++++++++++++++++++++++++++++++++++++++++++",
"++++++++++++++++++++++++++++++++++++++++++++++++",
"++++++++++++++++++++++++++++++++++++++++++++++++"
};
