/* XPM */
static char *xpm_[] = {
/* columns rows colors chars-per-pixel */
"48 48 10 1 ",
"  c black",
". c #5E3643",
"X c #5A5353",
"o c #7A444A",
"O c #7D7071",
"+ c #A05B53",
"@ c #BF7958",
"# c #E0A36F",
"$ c #A0938E",
"% c None",
/* pixels */
"%%%%%%%%%%%%%%%%%%%%%%%%%%%%%%%%%%%%%%%%%%%%%%%%",
"%%%%%%%%%%%%%%%%%%%%%%%%%%%%%%%%%%%%%%%%%%%%%%%%",
"%%%%%%%%%%%%%%%%%%%%%%%%%%%%%%%%%%%%%%%%%%%%%%%%",
"......%%%%%%%%%%%%%%%%%%%%%%%%%%%%%%%%%%%%%%%%%%",
"......%%%%%%%%%%%%%%%%%%%%%%%%%%%%%%%%%%%%%%%%%%",
"......%%%%%%%%%%%%%%%%%%%%%%%%%%%%%%%%%%%%%%%%%%",
"+++@@@......%%%%%%%%%%%%%%%%%%%%%%%%%%%%%%%%%%%%",
"+++@@@......%%%%%%%%%%%%%%%%%%%%%%%%%%%%%%%%%%%%",
"+++@@@......%%%%%%%%%%%%%%%%%%%%%%%%%%%%%%%%%%%%",
"+++@@@+++@@@...%%%%%%%%%%%%%%%%%%%%%%%%%%%%%%%%%",
"+++@@@+++@@@...%%%%%%%%%%%%%%%%%%%%%%%%%%%%%%%%%",
"+++@@@+++@@@...%%%%%%%%%%%%%%%%%%%%%%%%%%%%%%%%%",
"+++@@@+++@@@...%%%%%%%%%%%%%%%%%%%%%%%%%%%%%%%%%",
"+++@@@+++@@@...%%%%%%%%%%%%%%%%%%%%%%%%%%%%%%%%%",
"+++@@@+++@@@...%%%%%%%%%%%%%%%%%%%%%%%%%%%%%%%%%",
"######++++++...%%%%%%%%%%%%%%%%%%%%%%%%%%%%%%%%%",
"######++++++...%%%%%%%%%%%%%%%%%%%%%%%%%%%%%%%%%",
"######++++++...%%%%%%%%%%%%%%%%%%%%%%%%%%%%%%%%%",
"ooo+++######...%%%%%%%%%%%%%%%%%%%%%%%%%%%%%%%%%",
"ooo+++######...%%%%%%%%%%%%%%%%%%%%%%%%%%%%%%%%%",
"ooo+++######...%%%%%%%%%%%%%%%%%%%%%%%%%%%%%%%%%",
"ooo+++ooo+++   %%%%%%%%%%%%%%%%%%%%%%%%%%%%%%%%%",
"ooo+++ooo+++   %%%%%%%%%%%%%%%%%%%%%%%%%%%%%%%%%",
"ooo+++ooo+++   %%%%%%%%%%%%%%%%%%%%%%%%%%%%%%%%%",
"oooOOOooo+++   %%%%%%%%%%%%%%%%%%%%%%%%%%%%%%%%%",
"oooOOOooo+++   %%%%%%%%%%%%%%%%%%%%%%%%%%%%%%%%%",
"oooOOOooo+++   %%%%%%%%%%%%%%%%%%%%%%%%%%%%%%%%%",
"OOO$$$OOO+++   %%%%%%%%%%%%%%%%%%%%%%%%%%%%%%%%%",
"OOO$$$OOO+++   %%%%%%%%%%%%%%%%%%%%%%%%%%%%%%%%%",
"OOO$$$OOO+++   %%%%%%%%%%%%%%%%%%%%%%%%%%%%%%%%%",
"XXXOOOXXXOOO   %%%%%%%%%%%%%%%%%%%%%%%%%%%%%%%%%",
"XXXOOOXXXOOO   %%%%%%%%%%%%%%%%%%%%%%%%%%%%%%%%%",
"XXXOOOXXXOOO   %%%%%%%%%%%%%%%%%%%%%%%%%%%%%%%%%",
"oooXXXoooOOO   +++@@@+++@@@+++@@@+++@@@+++@@@+++",
"oooXXXoooOOO   +++@@@+++@@@+++@@@+++@@@+++@@@+++",
"oooXXXoooOOO   +++@@@+++@@@+++@@@+++@@@+++@@@+++",
"OOOOOOOOOXXX   +++@@@+++@@@+++@@@+++@@@+++@@@+++",
"OOOOOOOOOXXX   +++@@@+++@@@+++@@@+++@@@+++@@@+++",
"OOOOOOOOOXXX   +++@@@+++@@@+++@@@+++@@@+++@@@+++",
"XXXXXXXXX+++   +++@@@+++@@@+++@@@+++@@@+++@@@+++",
"XXXXXXXXX+++   +++@@@+++@@@+++@@@+++@@@+++@@@+++",
"XXXXXXXXX+++   +++@@@+++@@@+++@@@+++@@@+++@@@+++",
"ooooooooo+++   +++@@@+++@@@+++@@@+++@@@+++@@@+++",
"ooooooooo+++   +++@@@+++@@@+++@@@+++@@@+++@@@+++",
"ooooooooo+++   +++@@@+++@@@+++@@@+++@@@+++@@@+++",
"ooo+++ooo+++   +++@@@+++@@@+++@@@+++@@@+++@@@+++",
"ooo+++ooo+++   +++@@@+++@@@+++@@@+++@@@+++@@@+++",
"ooo+++ooo+++   +++@@@+++@@@+++@@@+++@@@+++@@@+++"
};
