/* XPM */
static char *xpm_[] = {
/* columns rows colors chars-per-pixel */
"48 48 3 1 ",
"  c black",
". c #A05B53",
"X c #BF7958",
/* pixels */
"   XXXXXXXXXXXXXXXXXXXXX.....................   ",
"   XXXXXXXXXXXXXXXXXXXXX.....................   ",
"   XXXXXXXXXXXXXXXXXXXXX.....................   ",
"   XXXXXXXXXXXXXXXXXXXXX...XXXXXXXXXXXXXXXXXX   ",
"   XXXXXXXXXXXXXXXXXXXXX...XXXXXXXXXXXXXXXXXX   ",
"   XXXXXXXXXXXXXXXXXXXXX...XXXXXXXXXXXXXXXXXX   ",
"   XXXXXXXXXXXXXXXXXXXXX...XXX...XXXXXX...XXX   ",
"   XXXXXXXXXXXXXXXXXXXXX...XXX...XXXXXX...XXX   ",
"   XXXXXXXXXXXXXXXXXXXXX...XXX...XXXXXX...XXX   ",
"   XXXXXXXXXXXXXXXXXXXXX...XXXXXXXXXXXXXXXXXX   ",
"   XXXXXXXXXXXXXXXXXXXXX...XXXXXXXXXXXXXXXXXX   ",
"   XXXXXXXXXXXXXXXXXXXXX...XXXXXXXXXXXXXXXXXX   ",
"   XXXXXXXXXXXXXXXXXXXXX...XXXXXXXXXXXXXXXXXX   ",
"   XXXXXXXXXXXXXXXXXXXXX...XXXXXXXXXXXXXXXXXX   ",
"   XXXXXXXXXXXXXXXXXXXXX...XXXXXXXXXXXXXXXXXX   ",
"   XXXXXXXXXXXXXXXXXXXXX...XXXXXXXXXXXXXXXXXX   ",
"   XXXXXXXXXXXXXXXXXXXXX...XXXXXXXXXXXXXXXXXX   ",
"   XXXXXXXXXXXXXXXXXXXXX...XXXXXXXXXXXXXXXXXX   ",
"   XXX...XXXXXXXXX...XXX...XXXXXXXXXXXXXXXXXX   ",
"   XXX...XXXXXXXXX...XXX...XXXXXXXXXXXXXXXXXX   ",
"   XXX...XXXXXXXXX...XXX...XXXXXXXXXXXXXXXXXX   ",
"   XXXXXXXXXXXXXXXXXXXXX...XXXXXXXXXXXXXXXXXX   ",
"   XXXXXXXXXXXXXXXXXXXXX...XXXXXXXXXXXXXXXXXX   ",
"   XXXXXXXXXXXXXXXXXXXXX...XXXXXXXXXXXXXXXXXX   ",
"   ........................XXXXXXXXXXXXXXXXXX   ",
"   ........................XXXXXXXXXXXXXXXXXX   ",
"   ........................XXXXXXXXXXXXXXXXXX   ",
"   XXXXXXXXXXXXXXXXXXXXX...XXXXXXXXXXXXXXXXXX   ",
"   XXXXXXXXXXXXXXXXXXXXX...XXXXXXXXXXXXXXXXXX   ",
"   XXXXXXXXXXXXXXXXXXXXX...XXXXXXXXXXXXXXXXXX   ",
"   XXX...XXXXXXXXX...XXX...XXXXXXXXXXXXXXXXXX   ",
"   XXX...XXXXXXXXX...XXX...XXXXXXXXXXXXXXXXXX   ",
"   XXX...XXXXXXXXX...XXX...XXXXXXXXXXXXXXXXXX   ",
"   XXXXXXXXXXXXXXXXXXXXX...XXXXXXXXXXXXXXXXXX   ",
"   XXXXXXXXXXXXXXXXXXXXX...XXXXXXXXXXXXXXXXXX   ",
"   XXXXXXXXXXXXXXXXXXXXX...XXXXXXXXXXXXXXXXXX   ",
"   XXXXXXXXXXXXXXXXXXXXX...XXXXXXXXXXXXXXXXXX   ",
"   XXXXXXXXXXXXXXXXXXXXX...XXXXXXXXXXXXXXXXXX   ",
"   XXXXXXXXXXXXXXXXXXXXX...XXXXXXXXXXXXXXXXXX   ",
"   XXXXXXXXXXXXXXXXXXXXX...XXXXXXXXXXXXXXXXXX   ",
"   XXXXXXXXXXXXXXXXXXXXX...XXXXXXXXXXXXXXXXXX   ",
"   XXXXXXXXXXXXXXXXXXXXX...XXXXXXXXXXXXXXXXXX   ",
"   XXXXXXXXXXXXXXXXXXXXX...XXX...XXXXXX...XXX   ",
"   XXXXXXXXXXXXXXXXXXXXX...XXX...XXXXXX...XXX   ",
"   XXXXXXXXXXXXXXXXXXXXX...XXX...XXXXXX...XXX   ",
"   XXXXXXXXXXXXXXXXXXXXX...XXXXXXXXXXXXXXXXXX   ",
"   XXXXXXXXXXXXXXXXXXXXX...XXXXXXXXXXXXXXXXXX   ",
"   XXXXXXXXXXXXXXXXXXXXX...XXXXXXXXXXXXXXXXXX   "
};
