/* XPM */
static char *xpm_[] = {
/* columns rows colors chars-per-pixel */
"48 48 7 1 ",
"  c #39314B",
". c #394778",
"X c #A93B3B",
"o c #E6482E",
"O c #F4B41B",
"+ c #3978A8",
"@ c #73A5BC",
/* pixels */
"OOOXXXooooooXXXooooooooooooooooooooooooooooooooo",
"OOOXXXooooooXXXooooooooooooooooooooooooooooooooo",
"OOOXXXooooooXXXooooooooooooooooooooooooooooooooo",
"XXXXXXXXXooooooooooooooooooooooooooooooooooooooo",
"XXXXXXXXXooooooooooooooooooooooooooooooooooooooo",
"XXXXXXXXXooooooooooooooooooooooooooooooooooooooo",
"oooXXXooooooooo+++++++++++++++++++++oooooooooooo",
"oooXXXooooooooo+++++++++++++++++++++oooooooooooo",
"oooXXXooooooooo+++++++++++++++++++++oooooooooooo",
"ooooooooooooooo+++ooo...ooo...ooo+++oooooooooooo",
"ooooooooooooooo+++ooo...ooo...ooo+++oooooooooooo",
"ooooooooooooooo+++ooo...ooo...ooo+++oooooooooooo",
"ooooooooooooooo@@@...ooo...ooo...+++XXXooooooooo",
"ooooooooooooooo@@@...ooo...ooo...+++XXXooooooooo",
"ooooooooooooooo@@@...ooo...ooo...+++XXXooooooooo",
"ooooooooooooooo@@@   ...   ...   @@@oooooooooooo",
"ooooooooooooooo@@@   ...   ...   @@@oooooooooooo",
"ooooooooooooooo@@@   ...   ...   @@@oooooooooooo",
"ooooooooooooooo@@@@@@@@@@@@@@@@@@@@@oooooooooooo",
"ooooooooooooooo@@@@@@@@@@@@@@@@@@@@@oooooooooooo",
"ooooooooooooooo@@@@@@@@@@@@@@@@@@@@@oooooooooooo",
"ooooooXXXoooooo...   ...   ...   ...oooooooooooo",
"ooooooXXXoooooo...   ...   ...   ...oooooooooooo",
"ooooooXXXoooooo...   ...   ...   ...oooooooooooo",
"ooooooooooooooo......   ...   ......oooooooooooo",
"ooooooooooooooo......   ...   ......oooooooooooo",
"ooooooooooooooo......   ...   ......oooooooooooo",
"ooooooooooooooo.....................oooooooooooo",
"ooooooooooooooo.....................oooooooooooo",
"ooooooooooooooo.....................oooooooooooo",
"ooooooooooooooooooooooooooooooXXXoooXXXooooooooo",
"ooooooooooooooooooooooooooooooXXXoooXXXooooooooo",
"ooooooooooooooooooooooooooooooXXXoooXXXooooooooo",
"ooooooXXXooooooooooooooooooooooooXXXoooooooooooo",
"ooooooXXXooooooooooooooooooooooooXXXoooooooooooo",
"ooooooXXXooooooooooooooooooooooooXXXoooooooooooo",
"oooXXXoooXXXoooooooooooooooooooooooooooooooooooo",
"oooXXXoooXXXoooooooooooooooooooooooooooooooooooo",
"oooXXXoooXXXoooooooooooooooooooooooooooooooooooo",
"ooooooXXXoooooooooooooooooooooooooooooooooXXXooo",
"ooooooXXXoooooooooooooooooooooooooooooooooXXXooo",
"ooooooXXXoooooooooooooooooooooooooooooooooXXXooo",
"ooooooooooooooooooooooooXXXooooooooooooXXXXXXXXX",
"ooooooooooooooooooooooooXXXooooooooooooXXXXXXXXX",
"ooooooooooooooooooooooooXXXooooooooooooXXXXXXXXX",
"ooooooooooooooooooooooooooooooooooooooooooXXXOOO",
"ooooooooooooooooooooooooooooooooooooooooooXXXOOO",
"ooooooooooooooooooooooooooooooooooooooooooXXXOOO"
};
