/* XPM */
static char *xpm_[] = {
/* columns rows colors chars-per-pixel */
"48 48 10 1 ",
"  c black",
". c #5E3643",
"X c #5A5353",
"o c #7A444A",
"O c #7D7071",
"+ c #A05B53",
"@ c #BF7958",
"# c #E0A36F",
"$ c #A0938E",
"% c None",
/* pixels */
"%%%%%%%%%%%%%%%..................%%%%%%%%%%%%%%%",
"%%%%%%%%%%%%%%%..................%%%%%%%%%%%%%%%",
"%%%%%%%%%%%%%%%..................%%%%%%%%%%%%%%%",
"%%%%%%%%%......@@@@@@@@@@@@@@@@@@......%%%%%%%%%",
"%%%%%%%%%......@@@@@@@@@@@@@@@@@@......%%%%%%%%%",
"%%%%%%%%%......@@@@@@@@@@@@@@@@@@......%%%%%%%%%",
"%%%......@@@+++@@@@@@@@@@@@@@@@@@+++@@@......%%%",
"%%%......@@@+++@@@@@@@@@@@@@@@@@@+++@@@......%%%",
"%%%......@@@+++@@@@@@@@@@@@@@@@@@+++@@@......%%%",
"...@@@+++@@@+++@@@@@@@@@@@@@@@@@@+++@@@+++@@@...",
"...@@@+++@@@+++@@@@@@@@@@@@@@@@@@+++@@@+++@@@...",
"...@@@+++@@@+++@@@@@@@@@@@@@@@@@@+++@@@+++@@@...",
"...@@@+++@@@+++##################+++@@@+++@@@...",
"...@@@+++@@@+++##################+++@@@+++@@@...",
"...@@@+++@@@+++##################+++@@@+++@@@...",
"...++++++######ooo+++ooo+++ooo+++######++++++...",
"...++++++######ooo+++ooo+++ooo+++######++++++...",
"...++++++######ooo+++ooo+++ooo+++######++++++...",
"...######ooo+++ooo+++ooo+++ooo+++ooo+++######...",
"...######ooo+++ooo+++ooo+++ooo+++ooo+++######...",
"...######ooo+++ooo+++ooo+++ooo+++ooo+++######...",
"   ooo+++ooo+++ooo+++ooo+++ooo+++ooo+++ooo+++   ",
"   ooo+++ooo+++ooo+++ooo+++ooo+++ooo+++ooo+++   ",
"   ooo+++ooo+++ooo+++ooo+++ooo+++ooo+++ooo+++   ",
"   ooo+++ooo+++ooo+++ooo+++ooo+++oooOOOooo+++   ",
"   ooo+++ooo+++ooo+++ooo+++ooo+++oooOOOooo+++   ",
"   ooo+++ooo+++ooo+++ooo+++ooo+++oooOOOooo+++   ",
"OOO$$$XXXooo+++ooo+++ooo+++ooo+++OOO$$$OOO+++   ",
"OOO$$$XXXooo+++ooo+++ooo+++ooo+++OOO$$$OOO+++   ",
"OOO$$$XXXooo+++ooo+++ooo+++ooo+++OOO$$$OOO+++   ",
"XXXXXXXXXooo+++ooo+++ooo+++oooOOOXXXOOOXXXOOO   ",
"XXXXXXXXXooo+++ooo+++ooo+++oooOOOXXXOOOXXXOOO   ",
"XXXXXXXXXooo+++ooo+++ooo+++oooOOOXXXOOOXXXOOO   ",
"   ooooooooo+++ooo+++ooo+++oooOOOoooXXXoooOOO   ",
"   ooooooooo+++ooo+++ooo+++oooOOOoooXXXoooOOO   ",
"   ooooooooo+++ooo+++ooo+++oooOOOoooXXXoooOOO   ",
"   ooo+++ooo+++ooo+++ooo+++oooXXXOOOOOOOOOXXX   ",
"   ooo+++ooo+++ooo+++ooo+++oooXXXOOOOOOOOOXXX   ",
"   ooo+++ooo+++ooo+++ooo+++oooXXXOOOOOOOOOXXX   ",
"OOO$$$XXXooo+++ooo+++ooo+++ooo+++XXXXXXXXX+++   ",
"OOO$$$XXXooo+++ooo+++ooo+++ooo+++XXXXXXXXX+++   ",
"OOO$$$XXXooo+++ooo+++ooo+++ooo+++XXXXXXXXX+++   ",
"XXXXXXXXXooo+++ooo+++ooo+++ooo+++ooooooooo+++   ",
"XXXXXXXXXooo+++ooo+++ooo+++ooo+++ooooooooo+++   ",
"XXXXXXXXXooo+++ooo+++ooo+++ooo+++ooooooooo+++   ",
"   ooooooooo+++ooo+++ooo+++ooo+++ooo+++ooo+++   ",
"   ooooooooo+++ooo+++ooo+++ooo+++ooo+++ooo+++   ",
"   ooooooooo+++ooo+++ooo+++ooo+++ooo+++ooo+++   "
};
